<svg id="Capa_1" data-name="Capa 1" xmlns="http://www.w3.org/2000/svg" viewBox="0 0 327.76 393.3"><path d="M178.48,0c12.18,4.65,16.4,10.72,16.4,23.75q0,126.8,0,253.59v4.86c2-.4,2.8-1.77,3.81-2.78q38.64-38.4,77.22-76.86c7.06-7.05,15.1-9.77,24.78-6.34a16.75,16.75,0,0,1,5.35,2.94,131.92,131.92,0,0,1,16.82,16.77c6.63,8.13,6.46,19-.07,27.25a45.22,45.22,0,0,1-3.58,4Q250.47,316,181.68,384.73c-9.09,9.08-19.19,11-28.78,5.5a31.36,31.36,0,0,1-6.54-5.28q-69-69-138.07-138.09c-11.06-11.07-11-23.65,0-34.75,4-4.09,8-8.25,12.4-12,8.37-7.2,19.14-7.21,27.74-.32a55.29,55.29,0,0,1,4.52,4.14q38,38.2,76,76.43c1,1,1.76,2.2,3.35,2.76,1.13-1.45.6-3.15.6-4.69q0-127.38-.05-254.74c0-8.17,2.52-14.71,9-19.72,2.48-1.92,5.48-2.7,8.25-4Z"/></svg>