<svg id="Capa_1" data-name="Capa 1" xmlns="http://www.w3.org/2000/svg" viewBox="0 0 399.84 399.77"><path d="M10.34,391.68c-1.87.37-2.62-.37-2.25-2.24.28-.83.58-1.65.82-2.49Q21.44,341.55,34,296.13c.63-2.27,0-4.05-1.05-6C11.75,251.32,4.74,210,11.88,166.43,19.5,120,41.76,81.53,78.48,52.07c44.14-35.43,94.78-49.81,150.85-42,43.1,6,80.18,25,109.88,57.22,45.32,49.18,61.54,106.92,48,172.21C369.88,323,295.46,384.61,207.8,388.76c-30.14,1.42-59.24-4.08-86.39-17.29-9.13-4.45-17-4.85-26.5-2.15C66.86,377.26,38.55,384.29,10.34,391.68ZM358.93,197.62a146.79,146.79,0,0,0-2.17-25.76C343.19,89,263.26,26.94,172.92,42.71,130,50.19,96,72.33,71.13,108,48.05,141,39,177.93,43.73,218A147.84,147.84,0,0,0,67.23,282c2.68,4.1,3,7.65,1.68,12.16-4.49,15.44-8.64,31-12.91,46.49-1.2,4.38-1,4.55,3.41,3.39,16.53-4.3,33.08-8.54,49.56-13a11.29,11.29,0,0,1,9.49,1.29c36,21.33,74.49,28.22,115.5,19.35C307.12,335.86,358.9,272.17,358.93,197.62Z"/><path d="M248.91,289.32c-11,.19-22.18-4.75-33.6-8.7-32.6-11.27-57.58-32.68-79-58.91-9.88-12.09-19.74-24.17-26.26-38.52-6.25-13.74-9.36-27.86-4.85-42.84,2.95-9.76,8.32-18.08,15.27-25.42,3.84-4.06,8.92-5.39,14.28-5.52a78.18,78.18,0,0,1,10.8.65c3.52.41,5.32,3.12,6.63,6,2.33,5.1,4.45,10.3,6.62,15.47,3.1,7.35,6.08,14.76,9.29,22.06a10.62,10.62,0,0,1-.69,10.33,78.27,78.27,0,0,1-9.59,12.87c-5.57,6.18-5.67,7.54-1.22,14.71,15.08,24.28,35.62,42.11,62.23,52.81,5.54,2.23,7.48,1.84,11.45-2.75,4.49-5.18,8.93-10.41,13-15.94,3.46-4.72,5.55-5.36,11.25-3.54,5.12,1.64,9.84,4.23,14.72,6.43,6.78,3.05,13.06,7.07,20.43,9s9.17,5.63,8.08,13.24C294.31,274.74,276.4,289.31,248.91,289.32Z"/></svg>